<?xml version="1.0" encoding="utf-8"?>
<!-- Generator: Adobe Illustrator 23.1.0, SVG Export Plug-In . SVG Version: 6.00 Build 0)  -->
<svg version="1.1" id="圖層_1" xmlns="http://www.w3.org/2000/svg" xmlns:xlink="http://www.w3.org/1999/xlink" x="0px" y="0px"
	 viewBox="0 0 1531 195.6" style="enable-background:new 0 0 1531 195.6;" xml:space="preserve">
<style type="text/css">
	.st0{fill:#FFFFFF;}
</style>
<title>footer logo</title>
<g>
	<g id="圖層_1-2">
		<path class="st0" d="M25.1,174.2c-5.9-1.4-11.3-4.4-15.5-8.7c-5.5-7.3-8.9-16-9.6-25.1c0.4-18.5,0.4-36.9,0-55.1
			c0.4-7.3,1-14.4,1.8-21.4c0.7-6.9,2.2-13.7,4.4-20.3L5,40.9c3.4-7.9,6.4-16,9-24.3l5.2,1.5c4.1,4.5,8.7,8.6,13.8,12h3.9
			c7.6-1.3,15.3-1.9,23-1.5c6.5,1,12.8,2.5,19.1,4.6c6.4,2.2,12.2,5.9,16.7,10.9c3.9,3.7,6.5,8.4,7.7,13.7c1,5.4,1.5,11,1.3,16.5
			c-1.7,4.5-3.9,8.7-6.7,12.6c-2.8,4-5.6,7.8-8.4,11.5c-4.5,3.6-9.3,6.7-14.4,9.3c-5,2.5-10.1,4.7-15.3,6.7l-0.7,2.4
			c3.3,3.9,9.7,11.6,19,23.2s16.2,18.6,20.6,21.2h2.4l3.9-1.1l1.1,2.2c-1.4,1-2,2.7-1.5,4.4c-4.2,2.2-8.8,3.3-13.6,3.3
			c-6.4-0.7-15.3-6.2-26.5-16.5s-19.4-17.5-24.3-21.7l-1.5-2.4c-1.8,6-3,12.2-3.5,18.5c-0.4,6-1.4,12-2.8,17.8l1.8,6.1
			C31.2,172.3,28.2,173.1,25.1,174.2z M51.6,101.8c6.4-3.5,12.1-8.1,16.9-13.5c4.8-5.4,9.2-11.3,13-17.5l1.3-11.4
			c-1.7-4.8-4.7-9-8.5-12.2C67.6,43,59.8,41,50.9,41.3l-9,2.2l-0.7,2.8l1.3,4.8l-1.7,7.2c-0.4,5.8-0.9,11.2-1.4,16.2
			c-0.5,4.9-1.2,9.8-2,14.4l0.7,9l-0.7,3.3c1.9,2.6,4.2,3.9,6.8,3.9L51.6,101.8z"/>
		<path class="st0" d="M208.5,175.3c-6.8-3.2-13.3-6.9-19.5-11.1l-7.2-9.6c-6.6,5.9-12.6,12.3-18.1,19.2l-4.1,1.3
			c-4.9-2.3-10-4.2-15.3-5.6c-5.5-1.5-10.8-3.9-15.5-7.1c-6.2-4.8-9.6-12.5-9-20.3c0.1-7.4,1.3-14.7,3.7-21.6
			c2.3-6.7,5.8-13,10.3-18.6c4.9-3.8,10.2-7.1,15.7-10c5.5-2.8,10.7-5.3,15.5-7.3l4.4,3.5l2.4-0.9l5.7,5.7c5.1-0.3,9.1,0.3,12,1.7
			c3.6,4.8,7.1,9.6,10.5,14.3c3.4,4.8,5.1,10.6,4.8,16.5l-0.6,3.3c1.3,7.5,2.2,15.1,2.7,22.7c0.5,7.7,2.7,14.1,6.7,19.2l-0.9,3.9
			v-0.9C211.2,174.1,209.8,174.6,208.5,175.3z M161.5,155.4c7.1-7,13-15.1,17.5-24l1.3-10.7l-2-5.7l-5.2-2
			c-4.8,2.8-9.1,6.4-12.7,10.7c-6.4,8.4-9.2,19.2-8.5,32.3L161.5,155.4z"/>
		<path class="st0" d="M243,177.4l-4.4-1.5l-3.5-3.5l-3.7-2c-4.4-3.9-6.9-9.6-6.8-15.5c-0.3-10.9,0.5-21.7,2.5-32.4
			c2-10.9,3.3-21.9,4.1-32.9l-0.9-3.9l3.7-2.4l0.9-2.8l1.5-0.4c5.9,1.9,11.7,4.1,17.3,6.8l2.4-0.9l2,1.8c7-5,15.4-7.9,24-8.3
			c3.1,0.9,6,2.4,8.5,4.4c2.3,3.9,4,8.2,5,12.7l5.7-3.5c5.6-6.4,13.8-10.1,22.3-10.1l5.9,2.6c6,5.1,8.5,11.8,7.6,20.1
			c-1,10.4-2.4,20.8-4.3,31.3s-4,20.8-6.4,31c-1.3,1.6-3.2,2.7-5.3,2.8c-3.5-5.7-5.4-12.3-5.5-19c0.6-9.4,1.8-18.7,3.7-27.9
			c1.9-9.2,3.7-18.4,5.5-27.4l-2-1.5l-6.1-0.8l-7,2.4c-7.1,12.2-11.9,23.4-14.3,33.5c-2.8,12.5-4.8,25.2-6,37.9l-3.9,3.7
			c-4.6-3.4-8.3-7.8-10.9-12.9l-0.4-3.5l-1.3-3.1c0.4-10.4,1.1-20.1,2.1-29.2s2.2-18.4,3.8-27.9l-10.7,4.2
			c-5.3,7.5-8.1,16.3-8.2,25.5c-0.1,9.1-1.4,18.2-3.8,27l0.4,2.8c-0.4,7.5-1.9,14.8-4.4,21.9l-4.6,0.2l-0.4,2.8L243,177.4z"/>
		<path class="st0" d="M411.7,170c-12.4,3.9-22.4,4.4-29.9,1.5c-7.3-2.7-14.1-6.6-20.1-11.5c-4.6-5.3-7.8-11.8-9.2-18.7
			c-1.5-7.1-2.6-14.3-3.5-21.7c0.3-5.7,2.3-11.1,5.7-15.6c3.4-4.4,7.4-8.3,11.8-11.7c5.5-6.3,12.8-9.9,21.9-10.9
			c5.4,1.7,10.6,4,15.5,6.8c4.8,2.8,9.7,5.6,14.6,8.5c5.8,5.4,9.5,9,11.1,10.9c2.7,1,5.5,1.8,8.3,2.4l2.8,8.1
			c-2.6,4.3-5.7,8.2-9.4,11.6c-6.9,4.1-14.2,7.6-21.6,10.5c-7.4,2.9-15.1,5.7-23,8.3l-2.2-0.2l-6.1,1.5l-0.2-0.2l1.5,2.2
			c9.2,5,19.8,6.1,31.9,3.3c2.3-1.8,5-2.8,7.9-3.1l7.4,2l3.3,3.7l-3.1,4.8C423.4,166.8,418.3,169.3,411.7,170z M410.4,115.4v-1.1
			c-2.8-5.2-4.4-8.2-4.8-8.7c-5.9-2-11.8-3.7-17.9-5c-9.8,3.2-15.4,7.1-16.8,11.6c-1.5,4.4-1.8,9.2-0.9,13.8l3.3,1.5
			c6.6-1.5,13-3.2,19.5-5.1C398.8,120.4,404.7,118.1,410.4,115.4L410.4,115.4z"/>
		<path class="st0" d="M527.3,179l-8.5-10.9c-3-6.6-4.3-13.9-3.9-21.2c0.6-3.6,0.9-11.2,0.9-22.7c1-6.7-0.9-13.6-5.2-18.8l-4.4-1.5
			c-4.8,1.2-9.3,3.9-13.3,8.3c-2.6,3.3-4.2,7.4-4.5,11.6c-0.4,4.4-1.2,8.7-2.5,12.9l0.2,7.6l-2,7.6l0.4,2.4
			c-0.4,6.2-1.3,12.3-2.8,18.4l-3.5-0.2l-0.9,3.7l-6.5-2.8c-4.4-6.6-10.3-12.2-17-16.4l-1.1-12.9c0.7-8.8,1.9-17.6,3.6-26.3
			c1.7-8.5,3.2-16.5,4.7-23.9c-1.6-1.5-2.3-3.9-2.2-7.4c3.6-2.2,7.6-3.7,11.8-4.3c5,4.4,11,7.5,17.5,9.1l0.7,2.4h0.9
			c5.6-4.9,12.7-7.7,20.1-7.9c5.5,1.2,10.6,3.8,14.9,7.4c4.5,7.6,7.8,15.9,9.8,24.5c-1,1.3-1.4,2.5-1.1,3.5
			c1.6,6.8,2.3,13.8,2.2,20.8l-1.1,15.3c-0.4,5.5-1.7,10.9-3.9,16l-2.4,0.4L527.3,179z"/>
		<path class="st0" d="M683.3,175.5c-5.1-3.2-10.1-6.5-14.9-10c-3.3-5.6-5.1-12-5-18.6l1.1-4.6c-0.1-8.8,0.6-17.6,2.1-26.3
			c1.4-8.1,2.8-16.1,4.3-24.2l-3.5-3.7v-4l1.1-2.8c2.9-0.6,5.6-1.2,8.1-2c5.3,2.9,10.6,5.7,16,8.3c2.5,6.7,3.7,13.8,3.5,21l-0.7,3.5
			l0.7,2c-2.4,9.7-3.8,19.6-4.2,29.6c-0.4,10-2.1,19.9-5.3,29.4l-2.2-0.9L683.3,175.5z M695.3,59.7l-3.1-1.5l-2.4,1.1l-5.2-5h-2
			l-3.9-2.8c-4.7-4.4-9-9.3-12.7-14.6c2.6-2.6,6.2-4,9.8-3.9c4.5,0.9,8.8,2.5,12.8,4.7c4.1,2.3,8,4.8,11.7,7.5
			c1.6,1.1,2.6,2.9,2.6,4.8l-2,1.5l-0.7,3.9c-1.9,0.3-3.7,1.2-5,2.6L695.3,59.7z"/>
		<path class="st0" d="M756.8,174.8l-4.6-4.8l-1.3-12.7l2-7.2l3.9-0.6l3.9,3.1c2.9-2,5.3-4.7,7-7.9c-7.3-0.6-15.2-1.4-23.6-2.4
			c-8.4-1-16.3-4.4-22.7-9.8c-3.2-6.3-5.3-13.1-5.9-20.1c0.8-4.1,2.5-8.1,4.8-11.6c2.4-3.5,5.2-6.8,8.3-9.6
			c4.6-3.2,9.4-6.1,14.4-8.7c5.2-2.7,10.8-4.3,16.6-4.8c5.9-0.3,11.7,0.5,17.3,2.4c5.2,1.9,10.2,4,15.1,6.5c1.7,1.5,2.9,3.5,3.3,5.7
			l-1.3,3.5l-2.2,5.7c-1.9,1.8-4.4,2.7-7,2.6l-4.6-1.8l-0.7-2.8c-1.9-1.5-4.2-2.2-6.6-2l-4.6,1.1c-4.9-0.4-9.8,0.4-14.4,2.2
			c-4.2,1.9-8.1,4.3-11.7,7.3l-6.8,7.7l-0.2,1.8l1.3,3.1c9.1,4.7,19.1,7.3,29.4,7.7c10.6,0.4,21,3.6,30,9.2c2.4,1.8,3.4,4.8,2.4,7.6
			c-0.4,4.9-2.5,9.4-5.9,12.9l-2.8,1.8l-5,5c-4.1,2.6-8.3,5.1-12.8,7.5C767.3,174.6,762,175.5,756.8,174.8z"/>
		<path class="st0" d="M1006.5,195.6c-2-1.2-4.5-1.6-6.8-1.1l-4.6-2.8l-4.4-1.8c-2.3-4.2-3.1-9.1-2.2-13.8l2.6-11.8l-2.6-0.6
			c-5.7,1.6-11.3,2.9-16.9,4c-5.9,1.1-11.8,1.7-17.8,1.6c-8.4-3.4-16.4-7.7-23.8-12.9c-6.7-7-9.6-15.4-8.7-25.3
			c1.4-11.5,4-22.8,7.8-33.8c3.7-10.8,8.2-21.4,13.4-31.6c6.8-9.3,14.5-17.8,23.1-25.5c8.3-7.5,17.4-14.2,27-20
			c3.2,0,6.4-0.4,9.4-1.3c-0.5,2.9,0.4,5.9,2.4,8.1c3.2,0.4,6.2,1.6,8.7,3.5l9.6,8.5l-1.1,5.7l-5,3.3l-0.7,2.8l-3.3,2.4l-1.1,2.8
			c-4.8,0.4-9.3,2.2-13.1,5.1c-3.9,3-7.9,6.2-11.8,9.7c-3.9,4.1-7.8,8.4-11.6,12.9c-3.7,4.3-6.7,9.1-9,14.2
			c-3.4,7.6-5.9,15.6-7.5,23.7c-1.7,8.2-3.1,16.6-4.3,25.2l3.9,3.5h6.5c6.6-1.9,12.8-3.7,18.8-5.6c6-1.8,11.9-4,17.7-6.4
			c2.3-5,4.6-9.9,6.7-14.8c2.1-4.8,3.8-9.7,5.1-14.8h-3.9c-5.3,0.2-10.5,1.8-15.1,4.6c-2.8-1.5-5.9-2.3-9-2.2
			c-2.3-2.4-4.9-4.4-7.9-5.9l-2.2-1.1l-1.1-5.7c8-4.5,17-7,26.1-7.1c9.5-0.2,19.2-0.5,28.9-1h3.9c5.5,1.6,10.8,4.1,15.5,7.4l0.7,3.7
			l-8.5,3.7l-1.5,3.5l0.4,2.8c-3.4,13.3-7.5,26.5-12.3,39.3c-4.9,13-9.7,25.9-14.5,38.7L1006.5,195.6z"/>
		<path class="st0" d="M1118.4,171.8c-7.6-2.8-15.3-5.3-23.3-7.4c-8-2.2-15.3-6.1-21.5-11.6c-4.3-4.5-7.6-10-9.5-15.9
			c-2-6.1-2.8-12.6-2.5-19c1.5-15.3,6.2-30.2,13.8-43.6c7.6-13.6,16.9-26.1,27.5-37.5l6.6-5.9l1.1-7.2l3.1,1.8
			c6.3,1.3,12.6,3.1,18.6,5.5l5.9,5.5c8.1,0.6,15.7,4.2,21.4,10l3.7,4.2c3.8,4.8,6.5,10.3,8,16.3c1.4,6,2.1,12.1,2.1,18.3
			c-1.3,8.2-1.5,16.6-0.7,24.9c-1.6,9.6-3.1,19.2-4.5,28.6c-1.3,9.3-5.1,18.2-11,25.6l-2.8,1.1l-11.4-0.4
			C1135.5,169.2,1127.1,171.6,1118.4,171.8z M1132.2,153.4c5.8-10,9.6-21,11.1-32.4c1.6-11.7,2.6-23.5,3.1-35.3l-0.7-4.4l0.7-5.2
			c0.5-7.2-1.2-14.5-4.8-20.8l-2.4-0.7L1127.8,66c-6.8,10.4-12.8,21.2-17.8,32.6c-5.2,11.5-8.4,23.9-9.5,36.5
			c1.3,4.5,3.8,8.6,7.2,11.8C1114.4,151.9,1122.6,154.1,1132.2,153.4z"/>
		<path class="st0" d="M1241,171.8c-7.6-2.8-15.3-5.3-23.3-7.4c-8-2.2-15.3-6.1-21.5-11.6c-4.3-4.6-7.6-10-9.5-15.9
			c-2-6.1-2.8-12.6-2.5-19c1.5-15.3,6.2-30.2,13.8-43.6c7.6-13.6,16.9-26.1,27.5-37.5l6.6-5.9l1.1-7.2l3.1,1.8
			c6.3,1.3,12.6,3.1,18.6,5.5l5.9,5.5c8.1,0.6,15.7,4.2,21.4,10l3.7,4.2c3.8,4.8,6.5,10.3,8,16.3c1.4,6,2.1,12.1,2,18.3
			c-1.3,8.2-1.5,16.6-0.7,24.9c-1.6,9.6-3.1,19.2-4.5,28.6c-1.3,9.4-5.1,18.2-11,25.6l-2.8,1.1l-11.4-0.4
			C1258.1,169.2,1249.7,171.6,1241,171.8z M1254.8,153.4c5.9-9.9,9.7-21,11.2-32.4c1.6-11.7,2.6-23.5,3.1-35.3l-0.7-4.4l0.7-5.2
			c0.5-7.2-1.2-14.5-4.8-20.8l-2.4-0.7L1250.4,66c-6.8,10.4-12.8,21.2-17.8,32.6c-5.2,11.5-8.4,23.9-9.5,36.5
			c1.3,4.5,3.8,8.6,7.2,11.8C1237,151.9,1245.2,154.1,1254.8,153.4L1254.8,153.4z"/>
		<path class="st0" d="M1337,175.3c-5.7-4-11.1-8.3-16.2-13.1c-4.2-8.6-6.5-18-6.8-27.5c-0.3-9.5-0.3-19.1,0-28.8l-3.9-3.3l-5.5-8.5
			l0.4-2.4l2.8-5.7l3.7-0.2l1.1-2.2h4.4c5.4-25.1,10.3-50.1,14.6-75c2.1,2.7,4.7,4.9,7.7,6.6l1.1-2.2l4.8-2.2l4.4-1.1
			c0.7,2.2,2.6,3.8,4.8,4.1l3.1,0.2c4.2,5.6,9,10.8,14.4,15.3l2.8,4.2c11.9,1.7,23.5,5.5,34.2,11c10.5,5.5,19.4,13.5,26.1,23.3
			c2.9,5.4,4.4,11.5,4.5,17.6c0.1,6.3-0.7,12.6-2.3,18.7c-3.3,9.9-7.3,19.5-11.9,28.8c-4.6,9.3-10.2,18-16.7,26l-16.8,10
			c-4.6,1.6-9.4,2.5-14.2,2.6c-5.6,2.6-11.3,4.7-17.3,6.3l-9.2-0.2l-2.2-4.2l-5.2-4.1l-7,4.1L1337,175.3z M1370.7,155.4
			c9.9-8.4,17.7-18.9,23-30.7c5.3-11.9,9.6-24.3,12.8-37c0.5-7.9-1.3-15.8-5.3-22.7c-4.6-4.4-10.2-7.5-16.4-9l-8.1,0.7l-1.5,4.2
			c0.4,8.3-0.6,16.7-2.8,24.7l-2.8,8.1v2.4l2.4,3.5l15.7-1.1l1.3,4.6l-1.7,2.2l-20.3,9.4l-2,6.3c0,5.9-0.5,11.7-1.5,17.5
			c-1,5.8-0.7,11.8,0.9,17.5L1370.7,155.4z"/>
		<path class="st0" d="M1471.8,181.2l-5.7-2.2c-4.4-7.3-8.4-14.8-12-22.5c0.7-5.1,1.6-9.8,2.6-14.1c1.1-4.8,1.8-9.6,2.2-14.5
			l7.9-1.5c5.2,3.6,10.2,7.4,14.9,11.4c4.5,6.1,6,13.3,4.6,21.6c-0.5,4.6-2.5,8.9-5.7,12.2l-4.8,3.9l-0.9,3.7L1471.8,181.2z
			 M1485.4,119.5c-5-6.3-7.7-12.4-8.2-18.4c-0.5-6-0.9-11.8-1.2-17.5c0.8-12.8,2.9-25.5,6.3-37.9c3.3-12,7.3-23.8,12-35.3l-1.3-4.1
			l2.8-4.2l6.3-2.2l4.4,1.1l3.5-0.9l11.4,12c2.3,0.6,4.4,2.3,6.3,5c1.4,4.1,2.5,8.2,3.3,12.5c-1.7,8.6-4.9,16.9-9.4,24.5
			c-4.4,7.4-7.9,15.3-10.3,23.6L1507,80c-2.5,4.8-5.1,9.7-8,14.5c-2.9,5-5,10.4-6.2,16.1l-6.1,4.4L1485.4,119.5z"/>
	</g>
</g>
</svg>
