<?xml version="1.0" encoding="utf-8"?>
<!-- Generator: Adobe Illustrator 23.1.0, SVG Export Plug-In . SVG Version: 6.00 Build 0)  -->
<svg version="1.1" id="圖層_1" xmlns="http://www.w3.org/2000/svg" xmlns:xlink="http://www.w3.org/1999/xlink" x="0px" y="0px"
	 viewBox="0 0 762 228" style="enable-background:new 0 0 762 228;" xml:space="preserve">
<style type="text/css">
	.st0{fill:#9C0000;}
	.st1{fill:#FFFFFF;}
</style>
<title>logo</title>
<path class="st0" d="M132.9,110.5l0.1,0.7c0,0.2,0,0.4,0,0.7c0,0.5,0,0.9,0.1,1.4s0,0.9,0,1.4s0,0.9,0,1.4s0,0.9,0,1.4
	c0,0.3,0,0.5,0,0.7v0.7l-0.1,1.5c0,0.5-0.1,1-0.1,1.5c-0.4,4.3-1.2,8.6-2.4,12.7c-0.2,0.4-0.4,0.8-0.7,1.2c-0.2,0.3-0.4,0.6-0.7,0.9
	l-0.9,1c-0.7,0.8-1.6,1.6-2.6,2.5c-0.5,0.4-1.1,0.9-1.7,1.4l-0.5,0.4l-0.5,0.3l-1,0.7c-1.6,1.1-3.2,2.1-4.9,2.9
	c-0.4,0.3-0.9,0.5-1.4,0.7l-1.5,0.7l-1.6,0.6c-0.5,0.2-1.1,0.5-1.6,0.6l-1.7,0.6c-0.3,0.1-0.6,0.2-0.9,0.3l-0.9,0.3l-0.9,0.3
	l-0.5,0.1l-0.5,0.1l-1.9,0.4c-9.2,1.9-18.8,1.4-27.8-1.5c-7.1-2.2-13.8-5.9-19.5-10.7c-6.3-5.3-11.4-11.8-15.1-19.1
	c-3.8-7.7-6-16.1-6.3-24.7c-0.4-8.7,1.1-17.3,4.2-25.4c1.6-4,3.5-7.7,5.9-11.3c4.5-6.9,10.3-12.8,17.1-17.4c3.2-2.2,6.6-4,10.1-5.6
	c3.3-1.5,6.8-2.6,10.3-3.5c6.4-1.5,13-2,19.5-1.5c1.5,0.1,2.9,0.3,4.4,0.5c0.7,0.1,1.4,0.3,2.1,0.4s1.4,0.2,2,0.4
	c4.6,1,9.1,2.5,13.3,4.5c4.3,2,8.4,4.5,12.2,7.5l0.1,0.1c0.3,0.3,0.6,0.5,0.9,0.8l0.8,0.9c0.5,0.6,1.1,1.2,1.6,1.8
	c0.5,0.6,0.9,1.3,1.4,1.9s0.8,1.3,1.1,2c0.4,0.6,0.7,1.3,0.9,2c0.3,0.7,0.5,1.3,0.7,2c0.4,1.3,0.7,2.7,0.8,4.1
	c0,0.2,0.1,0.3,0.1,0.5c1.4,2.6,3.1,5,5.1,7.2c0.2,0.2,0.3,0.6,0.3,0.9c-0.1,0.8-0.3,1.7-0.5,2.5c0,0.1,0,0.1,0,0.2l-0.1,2.2
	c0,0.1,0,0.3,0.1,0.4c0,0.1,0.1,0.2,0.2,0.3c0.2,0.2,0.5,0.3,0.7,0.2l1.7-0.3c0.2,0,0.4,0,0.5,0.1c1.3,0.7,2.5,1.5,3.8,2.4
	c0.7,0.4,1.2,0.9,1.9,1.3s1.3,0.9,1.9,1.4c0.3,0.2,0.4,0.6,0.4,1l-0.1,1.8c0,0.3-0.2,0.6-0.4,0.8c-0.7,0.5-1.4,1-2.1,1.5
	c-0.2,0.1-0.4,0.2-0.6,0.2c-2.1-0.1-4.1-0.2-6.1-0.2c2.2,0.3,4.5,0.8,6.8,1.3s4.6,1.3,7,2.1c0.3,0.1,0.6,0.4,0.6,0.7l0.6,2
	c0.1,0.3,0.2,0.5,0.4,0.7c1.1,0.8,2.2,1.6,3.4,2.5c0.2,0.2,0.5,0.2,0.7,0.2c2.8-0.6,5.5-1.2,8.3-1.9c0.1,0,0.3-0.1,0.4-0.2
	c1.4-1.4,2.7-3,3.8-4.7c0.6-0.9,1.1-1.8,1.5-2.7c0.4-1,0.9-2,1.3-3c1.5-4.5,2.1-9.3,1.8-14.1c0-0.3-0.1-0.7-0.3-1l-1.4-3
	c-0.1-0.2-0.2-0.5-0.3-0.7c-1-4.4-2.3-8.7-4-12.8l-0.1-0.2c-2.1-6.4-5.1-12.4-9.1-17.8c-4.2-5.8-9.3-10.8-15.1-15
	c-0.8-0.5-2.7-1.9-6-3.7l-1.3-0.7l-1.4-0.7c-1-0.5-2-1-3.1-1.5l-3.6-1.6c-1.3-0.5-2.6-1-4-1.6s-2.9-1-4.5-1.5s-3.2-0.9-4.9-1.4
	c-0.9-0.2-1.7-0.4-2.6-0.6s-1.8-0.4-2.7-0.6l-2.8-0.5c-0.5-0.1-1-0.2-1.4-0.2L117.5,1l-3-0.3l-3.1-0.2l-1.6-0.1h-1.6L105,0.2
	c-4.5,0.1-9.1,0.4-13.6,1.1C86.6,2,81.9,3.1,77.2,4.6c-4.9,1.5-9.7,3.5-14.3,5.8c-4.8,2.4-9.4,5.2-13.7,8.4
	C40.2,25.4,32.4,33.6,26.2,43c-6.5,9.8-11,20.7-13.5,32.1c-0.3,1.4-0.5,2.9-0.8,4.4s-0.4,2.9-0.6,4.4s-0.3,3-0.4,4.4s-0.1,3-0.2,4.4
	c-0.1,5.9,0.3,11.9,1.3,17.7c0.5,2.9,1.2,5.8,1.9,8.7c0.8,2.9,1.6,5.7,2.7,8.4c1,2.8,2.2,5.5,3.5,8.1s2.6,5.2,4.1,7.7
	s3.1,4.9,4.8,7.2c0.8,1.2,1.7,2.3,2.6,3.4s1.8,2.2,2.8,3.3s1.9,2.1,2.9,3.1s2,2,3,3c0.5,0.5,1,1,1.5,1.5l1.6,1.4
	c0.5,0.5,1,0.9,1.6,1.4l1.7,1.3l1.6,1.3l1.7,1.3l1.7,1.2c0.5,0.4,1.1,0.8,1.7,1.1c2.3,1.6,4.6,3,7,4.3c13.2,7.3,27.9,11.4,43,12
	l1.7,0.1c0.6,0,1.1,0,1.7,0h3.3c1.1,0,2.2-0.1,3.2-0.1s2.1-0.1,3.1-0.2c7.3-0.7,14.5-2.1,21.5-4.4c4.9-1.6,9.6-3.5,14.2-5.7
	c1.7-0.9,3.1-1.6,4.2-2.2s1.8-1,2.3-1.2c1.4,0.1,2.9,0.1,4.3,0.1s2.9,0,4.4-0.1c1.7-0.2,3.3-0.4,5-0.7l2.5-0.4l2.5-0.5
	c1.6-0.8,3.2-1.6,4.8-2.5s3.2-1.8,4.7-2.8c0.8-1.1,1.6-2.2,2.4-3.3s1.5-2.3,2.2-3.4c3.2-2,6.3-4.2,9.3-6.5c0.9-1.3,1.8-2.6,2.7-3.9
	l1.3-2c0.4-0.6,0.8-1.3,1.2-2c4-6.9,6.7-14.3,8.1-22.1c0.2-0.9,0.3-1.8,0.4-2.8s0.2-1.8,0.3-2.8c0.2-1.8,0.3-3.6,0.3-5.4
	c0-0.9,0-1.8-0.1-2.7c0-0.9-0.1-1.8-0.3-2.6c-0.3-1.7-0.7-3.5-1.2-5.2c-2-1.9-4.1-3.8-6.2-5.5s-4.1-3.4-6.1-4.9
	c-2.3,0.4-4.7,0.8-7.1,1.1c-1.2,0.8-2.4,1.8-3.5,2.8c-1.2,1.1-2.3,2.2-3.3,3.4l-1.7,1.9c-0.6,0.6-1.1,1.3-1.7,2s-1.1,1.4-1.7,2.1
	s-1.1,1.4-1.7,2.2c-2,0.6-4,1.2-5.9,1.7l-0.7,0.9l-0.8,0.9l-1.5,1.7c-0.8-0.6-1.5-1.1-2.3-1.6l-0.1-2l-0.2-2
	c-1.3-1.1-2.7-2.2-4.1-3.2c-1,0.6-2,1.1-3,1.6c0.8,0.7,1.5,1.4,2.3,2.1s1.5,1.4,2.2,2.2l-0.8,1.7c-0.3,0.6-0.6,1.1-0.9,1.7
	c-1.2-0.6-2.5-1.2-3.7-1.8c-1.3-0.3-2.7-0.5-4-0.8c-1.1-0.8-2.2-1.6-3.3-2.3c-1.7,0.2-3.4,0.3-5,0.4c-3.1-0.7-6.3-1.6-9.4-2.4
	c-0.2,0.4-0.4,0.9-0.6,1.4s-0.4,0.9-0.6,1.3c-1.7-0.6-3.3-1.2-5-1.8l-2.3-1.2C131.6,108.9,132.3,109.7,132.9,110.5z"/>
<path class="st1" d="M111.2,227.6l3.7-2l2-3.1l-4.6-2.6l-9,4.4l2.2-1.8l-2.2-2l4.4-5.9l2.6-1.1l3.3-2.6l3.7,0.4
	c13.9-5.9,27-13.7,38.8-23.1c12.2-9.6,23.8-20.1,34.6-31.2l2-7.9l-4.4,2.2l-2.6-2.2l-0.4,3.5l-2.6-5.9c-0.9,2.2-2.1,3.6-3.7,4.2
	l-6.6,1.8l-2.4,1.1l-2-1.8l-1.8,2.6h-2.6l1.5-2.6l-0.9-3.5h-3.7v3.5l-2,3.3l-3.7-0.6l-8.1,2.4c-7.6,1.8-14.8,3.5-21.6,5.1
	c-6.7,1.7-13.3,4-19.6,6.9l-1.5,3.1c-6.5-1.1-12.6-4-17.5-8.3l-3.9-3.5l-3.1-2.2l1.7-7.2l4.4-0.9l1.5-5.3l2.2-0.7l4.2,0.7
	c14.4-4.6,29.2-7.8,44.2-9.6c15.2-1.9,30.6-3.2,46.2-4l2.4,0.4c6-1.7,12.2-2.6,18.4-2.6c6.9-0.5,13.8,1.8,19.1,6.4
	c1.8,4,2.7,8.3,2.6,12.7c-2.9,4.8-5.9,9.6-8.9,14.4c-3.1,5-6.9,9.6-11.3,13.6c-11.7,8.7-23.9,16.8-36.6,24.1
	c-12.4,7.2-25,14.2-37.7,21.1l-7.7,3.7l-3.1-1.3C118.8,226.7,115,228.2,111.2,227.6z M115.1,117.9v-2.4l-0.7-5l-3.7-0.4l-1.1-9
	l-2-4.4l1.1-3.5l-0.4-3.7l0.4-3.7l-2.8-0.7l-2.4,4.8l-1.8-2.4l1.8-4.2l2.8-1.1l0.7-2.4l-2.8-1.8l-2-4.8c-4.2-2.7-7.5-6.6-9.4-11.2
	l-0.7-6.6l4.8-11c6-3.9,12.9-6.2,20-6.5h4.1l4.8,3.1l3.7-1.3l4.8,2.4l4.2,4.8l3.5,5c7.7,1.6,15.6,2.9,23.6,3.8
	c7.9,0.9,15.5,3,22.8,6.2l7.9,2.4l2.4-0.4c5.9,2.7,11,7.2,14.4,12.7l1.3,8.3l-2.4,3.7l-2.4,0.7c-1.8,4.5-3.4,9-5,13.4l1.3-6.1
	l-1.3-2.8l-2.4-0.7l-7,6.6l-0.6,3.1l-3.1-1.3l-2.4-1.8c-2.9,1.1-5.9,1.6-9,1.3c-4.5-3-9.7-4.6-15.1-4.8c-8.7,0.7-17,3.6-24.3,8.3
	c-7.4,4.8-15.4,8.5-23.9,11L115.1,117.9z M120.4,218l2.4-0.9l-1.8-1.7l-5.4,2.6H120.4z"/>
<path class="st1" d="M284.2,165.6c-3.9-4.7-7.9-9.5-11.8-14.5s-7.7-10.2-11.4-15.6v-2.2c1.1-1.2,1.6-2.8,1.5-4.4l2-1.5
	c0.6-2.5,1.9-3.3,3.9-2.6c3.2,1,6.5,1.4,9.8,1.1c3.3-0.6,6.6-0.6,9.8,0c10.4-1.9,20.8-3.1,31.4-3.6c10.6-0.5,21.2-1,31.8-1.4
	c3.4,1.4,7,2,10.7,1.8c8,0.3,16.1-0.3,24-1.8l2.2,1.8l0.2,4.8l-2.9,3.7v2.8l0.5,3.1l-3.7,8.1c-9,4.3-18.7,7.1-28.6,8.1
	c-10,1-19.9,2.7-29.7,5c-7.1,1.2-14.2,1.7-21.4,1.5c-2.9,0.6-5.9,1.1-9,1.5l-3.7-0.7l-1.8,1.3l-2,3.7L284.2,165.6z"/>
<path class="st1" d="M425.1,224.4l-0.7-3.7l-2.2,2.2c-2.5-5.5-4-11.4-4.4-17.5c2.4-4.9,4.3-10.1,5.7-15.4c1.4-5.4,4.2-10.3,8.1-14.3
	l2.4-0.9c7-9,14.3-17.8,22.1-26.4c-6-5.1-11.8-10.1-17.5-15c-5.5-4.7-10.5-10.1-14.6-16.1l-1.8-6.6l4.4-7.7l2.4-1.1l2.6-3.7l3.9-0.7
	c7,4,14.4,7.4,22,10.2c7.5,2.7,15,5.5,22.4,8.4c4.5-4.6,8.6-9.5,12.5-14.6c3.8-5.2,8-10.1,12.4-14.8l8.7-8.7
	c6.9-5.3,12.9-11.5,17.9-18.6c2.5-2.9,5-4.4,7.7-4.4c1.7,1.8,4.1,3,6.6,3.3l3.9-0.4l4.4,0.4l2.2,4.4c3.8,1.9,8,3,12.2,3.3l2.2,2.8
	l5.5,2.6l0.7,4.4l-1.5,5.9c-6.4,7.7-13.8,12.7-22.1,14.9c-8.5,2.3-16.3,6.3-23,12c-3.7,4-7.6,7.7-11.8,11.2
	c-4.2,3.5-8,7.4-11.4,11.8c11.9,11.1,24.1,22,36.5,32.8c2.3,3.2,3.3,7.1,2.8,10.9l-2.8,0.4l0.7,3.9h-5l0.7,3.7L537,184l-3.3-1.1
	l-1.1,2.6c-2.6,2.6-6.4,3.8-10.1,3.3l-8.3-3.3c-5.2-3.3-10.8-6-16.6-8.1l-0.4-2.2c-5.7-5-12.7-8.4-20.1-9.8v4.4
	c-2.3,0-4.4,1.3-5.5,3.3c0,2.2-0.7,3.5-2.2,3.9l-6.1,2.6v2.2l-3.9,1.1l1.8,3.3c-2.6,0.7-5,1.8-7.2,3.3c-1.2,1.5-2.2,3.2-2.8,5
	l-7,3.7c-0.4,1.8-1.8,2.8-4.1,3.3c-2.5,5.1-4.3,10.4-5.5,15.9L425.1,224.4z"/>
<path class="st1" d="M628.2,115.8l-5.9-11.4c-3.4-1.2-6.1-3.8-7.4-7.2l-0.8-6.1c-2.9-1.4-5.4-3.4-7.4-5.9l0.2-2.4l3.9-3.7l3.7-1
	l4.4-4.6l5-1.5l5.2,3.2c9.5-0.3,18.9,0.2,28.3,1.5c9.7,1.3,19.4,3.2,29,5.7c3.8,4.4,7.6,9,11.4,13.8l-3.5,14l-2.8-1.1l-2,3.7
	l-6.3-0.4l1.5,4.6l-0.9,2.2l-2.2-0.9l-5.3-4.6L676,116c-6.6,0.6-13.2,0.3-19.8-0.8c-6.6-1.1-13.4-1.2-20-0.3l-1.8,2.4L628.2,115.8z
	 M674.3,220.2l-8.3-3.5c-5.1-4.6-9.9-9.5-14.4-14.6c2.2-3.4,2.4-7.7,0.7-11.4l2.6-1.8l2.6,2.4c12.2-8.4,27.2-20.9,44.9-37.4
	c17.7-16.5,32.8-28,45.1-34.8l10.7-1.8c1.9,1.9,3.3,4.2,4.2,6.8l-2.4,0.2c-3.2,0.6-4.9,2.4-5,5.5l-3.1,1.8l6.1,2.2
	c-3.4,4.1-7.4,7.7-12,10.5c-0.8,1.5-1.8,2.9-3.1,4.1c-6.7,5.3-16.9,14.1-30.6,26.4c-13.7,12.4-23.7,21.3-29.9,26.9l-0.9,3.3
	l-4.8,6.1L674.3,220.2z"/>
</svg>
